<?xml version="1.0" encoding="UTF-8" standalone="no"?>
<!-- Created with Inkscape (http://www.inkscape.org/) -->

<svg
   version="1.1"
   id="svg1"
   width="1024"
   height="1024"
   viewBox="0 0 1024 1024"
   sodipodi:docname="favicon.svg"
   inkscape:version="1.4.3 (0d15f75042, 2025-12-25)"
   xmlns:inkscape="http://www.inkscape.org/namespaces/inkscape"
   xmlns:sodipodi="http://sodipodi.sourceforge.net/DTD/sodipodi-0.dtd"
   xmlns="http://www.w3.org/2000/svg"
   xmlns:svg="http://www.w3.org/2000/svg"
   xmlns:rdf="http://www.w3.org/1999/02/22-rdf-syntax-ns#"
   xmlns:cc="http://creativecommons.org/ns#"
   xmlns:dc="http://purl.org/dc/elements/1.1/">
  <title
     id="title4">devlinman favicon</title>
  <defs
     id="defs1" />
  <sodipodi:namedview
     id="namedview1"
     pagecolor="#000000"
     bordercolor="#eeeeee"
     borderopacity="1"
     inkscape:showpageshadow="0"
     inkscape:pageopacity="0"
     inkscape:pagecheckerboard="0"
     inkscape:deskcolor="#030303"
     inkscape:zoom="0.5655473"
     inkscape:cx="210.41565"
     inkscape:cy="495.09564"
     inkscape:window-width="1920"
     inkscape:window-height="1046"
     inkscape:window-x="0"
     inkscape:window-y="0"
     inkscape:window-maximized="1"
     inkscape:current-layer="layer1" />
  <g
     inkscape:groupmode="layer"
     id="layer1"
     inkscape:label="paths"
     style="stroke:#ffffff;stroke-opacity:1"
     transform="matrix(1.9533367,0,0,1.9533367,-492.65787,-439.26449)"
     sodipodi:insensitive="true">
    <path
       style="display:inline;fill:#ec3536;fill-opacity:1;stroke:none;stroke-width:1.0529;stroke-dasharray:none;stroke-opacity:1"
       d="m 284.44444,226.9304 c 0,0 17.50428,75.64347 102.52504,125.03053 85.6459,-33.75824 192.547,-22.5055 251.9365,-0.62515 83.77046,-51.26252 99.39927,-125.65568 99.39927,-125.65568 0,0 35.6337,83.77045 -21.25519,180.66911 -0.62515,112.52747 0,156.28815 0,156.28815 l -186.92063,184.42003 40.63492,-78.76923 -57.51404,42.51038 -60.01466,-41.26008 41.26008,78.76923 -186.92064,-185.67033 -0.62515,-156.91331 c 0,0 -50.01221,-78.76923 -22.5055,-178.79365 z"
       id="path1"
       inkscape:label="out"
       sodipodi:insensitive="true" />
    <path
       style="display:inline;fill:#19181e;fill-opacity:1;stroke:none;stroke-opacity:0.656804"
       d="M 336.95727,418.22711 336.33211,552.00977 511.37485,681.41636 685.79243,551.38462 685.16728,421.35287 513.25031,505.12332 Z"
       id="path2"
       inkscape:label="in"
       sodipodi:insensitive="true" />
    <path
       style="fill:#eb3537;fill-opacity:1;stroke:none;stroke-opacity:1"
       d="m 594.20757,490.43223 53.13797,32.19537 -57.82661,34.69597 -9.68987,-12.50306 35.6337,-21.56776 -34.07082,-20.94262 z"
       id="path3"
       inkscape:label="langle"
       sodipodi:insensitive="true" />
    <path
       style="fill:#eb3537;fill-opacity:1;stroke:none;stroke-opacity:1"
       d="m 429.70927,491.68254 -53.13797,32.19537 57.82661,34.69597 9.68987,-12.50306 -35.6337,-21.56776 34.07082,-20.94262 z"
       id="path4"
       inkscape:label="rangle"
       sodipodi:insensitive="true" />
  </g>
  <metadata
     id="metadata4">
    <rdf:RDF>
      <cc:Work
         rdf:about="">
        <dc:title>devlinman favicon</dc:title>
        <dc:date>Tuesday, 27 January 2026</dc:date>
        <dc:creator>
          <cc:Agent>
            <dc:title>devlinman</dc:title>
          </cc:Agent>
        </dc:creator>
        <dc:publisher>
          <cc:Agent>
            <dc:title>devlinman</dc:title>
          </cc:Agent>
        </dc:publisher>
      </cc:Work>
    </rdf:RDF>
  </metadata>
</svg>
